<svg width="128" height="128" viewBox="0 0 128 128" fill="none" xmlns="http://www.w3.org/2000/svg">
  <rect width="128" height="128" rx="28" fill="#1F2937"/>
  <path d="M34 43C34 35.8203 39.8203 30 47 30H83C90.1797 30 96 35.8203 96 43V51C96 58.1797 90.1797 64 83 64H47C39.8203 64 34 58.1797 34 51V43Z" fill="#F59E0B"/>
  <path d="M40 71C40 59.9543 48.9543 51 60 51H78C86.8366 51 94 58.1634 94 67V68C94 76.8366 86.8366 84 78 84H60C48.9543 84 40 75.0457 40 64V71Z" fill="#F9FAFB"/>
  <path d="M86 46C91.5228 46 96 50.4772 96 56C96 61.5228 91.5228 66 86 66V46Z" fill="#FDE68A"/>
  <circle cx="53" cy="41" r="4" fill="#1F2937"/>
  <circle cx="65" cy="41" r="4" fill="#1F2937"/>
  <circle cx="77" cy="41" r="4" fill="#1F2937"/>
  <path d="M56 92H80" stroke="#F59E0B" stroke-width="8" stroke-linecap="round"/>
  <path d="M50 102H86" stroke="#F9FAFB" stroke-width="8" stroke-linecap="round"/>
</svg>
